# xmcd
#
# Track frame offsets:
#	150
#	84724
#	105888
#	128740
#	158830
#
# Disc length: 2389 seconds
#
# Revision: 0
# Processed by: cddbd v1.5.2PL0 Copyright (c) Steve Scherf et al.
# Submitted via: audiograbber 1.83.01
#
DISCID=30095305
DTITLE=Jody Grind - Interaction - A Jody Grind-Anthology [CD 1)
DYEAR=2007
DGENRE=
TTITLE0=One Step On
TTITLE1=Little Message	
TTITLE2=Night Today
TTITLE3=U.S.A.
TTITLE4=Rock'n'roll Man
EXTD=
EXTT0=
EXTT1=
EXTT2=
EXTT3=
EXTT4=
PLAYORDER=
